# xmcd
#
# Track frame offsets:
#	150
#	21952
#	44434
#	73344
#	94865
#	117575
#	145876
#	175483
#	197040
#	228454
#
# Disc length: 3362 seconds
#
# Revision: 0
# Processed by: cddbd v1.5.2PL0 Copyright (c) Steve Scherf et al.
# Submitted via: dBpowerAMP V4.0
#
DISCID=980d200a
DTITLE=Reveries, the - Matchmakers vol 1 (the music of Willie nelson)
DYEAR=2007
DGENRE=Country folk
TTITLE0=I let my Mind wander
TTITLE1=Any arms won't do
TTITLE2=Crazy
TTITLE3=December Days
TTITLE4=Nightlife
TTITLE5=Didn't Sleep a wink last night
TTITLE6=I've Just destroyed the World I'm Living in
TTITLE7=I Can't find the Time
TTITLE8=It always Will be
TTITLE9=I just Don't Understand
EXTD=
EXTT0=
EXTT1=
EXTT2=
EXTT3=
EXTT4=
EXTT5=
EXTT6=
EXTT7=
EXTT8=
EXTT9=
PLAYORDER=
